<mxfile host="app.diagrams.net" agent="Mozilla/5.0 (Windows NT 10.0; Win64; x64) AppleWebKit/537.36 (KHTML, like Gecko) Chrome/130.0.0.0 Safari/537.36 Edg/130.0.0.0" version="24.8.3">
  <diagram name="Page-1" id="DUz52T3hlYbFarBGfvQm">
    <mxGraphModel dx="2681" dy="856" grid="1" gridSize="10" guides="1" tooltips="1" connect="1" arrows="1" fold="1" page="1" pageScale="1" pageWidth="850" pageHeight="1100" math="0" shadow="0">
      <root>
        <mxCell id="0" />
        <mxCell id="1" parent="0" />
        <mxCell id="S9cItze8Yrv6oykSEDYG-1" value="HTML Login Page" style="rounded=1;whiteSpace=wrap;html=1;" parent="1" vertex="1">
          <mxGeometry x="90" y="150" width="200" height="50" as="geometry" />
        </mxCell>
        <mxCell id="S9cItze8Yrv6oykSEDYG-2" value="&lt;font style=&quot;font-size: 20px;&quot;&gt;&lt;b&gt;Login - Session Diagram&lt;/b&gt;&lt;/font&gt;" style="text;html=1;align=center;verticalAlign=middle;whiteSpace=wrap;rounded=0;" parent="1" vertex="1">
          <mxGeometry x="69.49" width="240" height="30" as="geometry" />
        </mxCell>
        <mxCell id="S9cItze8Yrv6oykSEDYG-9" style="edgeStyle=orthogonalEdgeStyle;rounded=0;orthogonalLoop=1;jettySize=auto;html=1;exitX=0.5;exitY=1;exitDx=0;exitDy=0;entryX=0.5;entryY=0;entryDx=0;entryDy=0;" parent="1" source="S9cItze8Yrv6oykSEDYG-3" target="S9cItze8Yrv6oykSEDYG-8" edge="1">
          <mxGeometry relative="1" as="geometry" />
        </mxCell>
        <mxCell id="S9cItze8Yrv6oykSEDYG-16" style="edgeStyle=orthogonalEdgeStyle;rounded=0;orthogonalLoop=1;jettySize=auto;html=1;exitX=1;exitY=0.5;exitDx=0;exitDy=0;entryX=0.5;entryY=0;entryDx=0;entryDy=0;" parent="1" source="S9cItze8Yrv6oykSEDYG-3" target="S9cItze8Yrv6oykSEDYG-11" edge="1">
          <mxGeometry relative="1" as="geometry" />
        </mxCell>
        <mxCell id="S9cItze8Yrv6oykSEDYG-3" value="is Login ?" style="rhombus;whiteSpace=wrap;html=1;" parent="1" vertex="1">
          <mxGeometry x="100" y="240" width="180" height="60" as="geometry" />
        </mxCell>
        <mxCell id="S9cItze8Yrv6oykSEDYG-4" value="" style="endArrow=classic;html=1;rounded=0;exitX=0.5;exitY=1;exitDx=0;exitDy=0;" parent="1" source="S9cItze8Yrv6oykSEDYG-1" target="S9cItze8Yrv6oykSEDYG-3" edge="1">
          <mxGeometry width="50" height="50" relative="1" as="geometry">
            <mxPoint x="400" y="360" as="sourcePoint" />
            <mxPoint x="450" y="310" as="targetPoint" />
          </mxGeometry>
        </mxCell>
        <mxCell id="S9cItze8Yrv6oykSEDYG-5" value="YES" style="text;html=1;align=center;verticalAlign=middle;whiteSpace=wrap;rounded=0;" parent="1" vertex="1">
          <mxGeometry x="110" y="290" width="60" height="30" as="geometry" />
        </mxCell>
        <mxCell id="S9cItze8Yrv6oykSEDYG-6" value="NO - Register" style="text;html=1;align=center;verticalAlign=middle;whiteSpace=wrap;rounded=0;" parent="1" vertex="1">
          <mxGeometry x="460" y="290" width="90" height="30" as="geometry" />
        </mxCell>
        <mxCell id="S9cItze8Yrv6oykSEDYG-21" style="edgeStyle=orthogonalEdgeStyle;rounded=0;orthogonalLoop=1;jettySize=auto;html=1;exitX=0.5;exitY=1;exitDx=0;exitDy=0;entryX=0.5;entryY=0;entryDx=0;entryDy=0;" parent="1" source="S9cItze8Yrv6oykSEDYG-8" target="S9cItze8Yrv6oykSEDYG-19" edge="1">
          <mxGeometry relative="1" as="geometry" />
        </mxCell>
        <mxCell id="S9cItze8Yrv6oykSEDYG-8" value="&lt;div&gt;&lt;span style=&quot;background-color: initial;&quot;&gt;- Provide info&amp;nbsp;&lt;/span&gt;&lt;/div&gt;&lt;div&gt;&lt;span style=&quot;background-color: initial;&quot;&gt;&lt;span style=&quot;white-space: pre;&quot;&gt;&#x9;&lt;/span&gt;+&amp;nbsp;&lt;b&gt;username&lt;/b&gt;&lt;/span&gt;&lt;/div&gt;&lt;div&gt;&lt;span style=&quot;background-color: initial;&quot;&gt;&lt;span style=&quot;font-weight: bold; white-space: pre;&quot;&gt;&#x9;&lt;/span&gt;+ &lt;b&gt;password&lt;/b&gt;&lt;/span&gt;&lt;/div&gt;&lt;span style=&quot;background-color: initial;&quot;&gt;- Redirect to &lt;b&gt;/login_handling/login - POST &lt;/b&gt;method&lt;/span&gt;" style="rounded=0;whiteSpace=wrap;html=1;align=left;" parent="1" vertex="1">
          <mxGeometry x="47.5" y="340" width="285" height="100" as="geometry" />
        </mxCell>
        <mxCell id="S9cItze8Yrv6oykSEDYG-61" style="edgeStyle=orthogonalEdgeStyle;rounded=0;orthogonalLoop=1;jettySize=auto;html=1;exitX=0.5;exitY=1;exitDx=0;exitDy=0;entryX=0.5;entryY=0;entryDx=0;entryDy=0;" parent="1" source="S9cItze8Yrv6oykSEDYG-11" target="S9cItze8Yrv6oykSEDYG-60" edge="1">
          <mxGeometry relative="1" as="geometry" />
        </mxCell>
        <mxCell id="S9cItze8Yrv6oykSEDYG-11" value="&lt;div&gt;&lt;span style=&quot;background-color: initial;&quot;&gt;- Provide info&amp;nbsp;&lt;/span&gt;&lt;/div&gt;&lt;div&gt;&lt;span style=&quot;background-color: initial;&quot;&gt;&lt;span style=&quot;white-space: pre;&quot;&gt;&#x9;&lt;/span&gt;+&amp;nbsp;&lt;b&gt;username&lt;/b&gt;&lt;/span&gt;&lt;/div&gt;&lt;div&gt;&lt;span style=&quot;background-color: initial;&quot;&gt;&lt;span style=&quot;font-weight: bold; white-space: pre;&quot;&gt;&#x9;&lt;/span&gt;+&lt;b&gt; email&lt;br&gt;&lt;/b&gt;&lt;/span&gt;&lt;/div&gt;&lt;div&gt;&lt;span style=&quot;background-color: initial;&quot;&gt;&lt;span style=&quot;font-weight: bold; white-space: pre;&quot;&gt;&#x9;&lt;/span&gt;+ &lt;b&gt;password&lt;/b&gt;&lt;/span&gt;&lt;/div&gt;&lt;div&gt;&lt;span style=&quot;background-color: initial;&quot;&gt;&lt;span style=&quot;font-weight: bold; white-space: pre;&quot;&gt;&#x9;&lt;/span&gt;+&lt;b&gt; confirmed password&lt;br&gt;&lt;/b&gt;&lt;/span&gt;&lt;/div&gt;&lt;span style=&quot;background-color: initial;&quot;&gt;- Redirect to &lt;b&gt;/login_handling/register - POST &lt;/b&gt;method&lt;/span&gt;" style="rounded=0;whiteSpace=wrap;html=1;align=left;" parent="1" vertex="1">
          <mxGeometry x="400" y="340" width="300" height="100" as="geometry" />
        </mxCell>
        <mxCell id="S9cItze8Yrv6oykSEDYG-14" style="edgeStyle=orthogonalEdgeStyle;rounded=0;orthogonalLoop=1;jettySize=auto;html=1;exitX=0.5;exitY=1;exitDx=0;exitDy=0;entryX=0.5;entryY=0;entryDx=0;entryDy=0;" parent="1" source="S9cItze8Yrv6oykSEDYG-13" target="S9cItze8Yrv6oykSEDYG-1" edge="1">
          <mxGeometry relative="1" as="geometry" />
        </mxCell>
        <mxCell id="S9cItze8Yrv6oykSEDYG-13" value="START&lt;div&gt;(&lt;b&gt;/login_handling - GET &lt;/b&gt;method)&lt;/div&gt;" style="ellipse;whiteSpace=wrap;html=1;" parent="1" vertex="1">
          <mxGeometry x="80" y="50" width="225" height="70" as="geometry" />
        </mxCell>
        <mxCell id="S9cItze8Yrv6oykSEDYG-27" style="edgeStyle=orthogonalEdgeStyle;rounded=0;orthogonalLoop=1;jettySize=auto;html=1;exitX=0.5;exitY=1;exitDx=0;exitDy=0;entryX=0.5;entryY=0;entryDx=0;entryDy=0;" parent="1" source="S9cItze8Yrv6oykSEDYG-17" target="S9cItze8Yrv6oykSEDYG-25" edge="1">
          <mxGeometry relative="1" as="geometry" />
        </mxCell>
        <mxCell id="S9cItze8Yrv6oykSEDYG-17" value="- Create new &lt;b&gt;Session&amp;nbsp;&lt;/b&gt;for valid user" style="rounded=0;whiteSpace=wrap;html=1;align=left;" parent="1" vertex="1">
          <mxGeometry x="84.38" y="610" width="211.25" height="60" as="geometry" />
        </mxCell>
        <mxCell id="S9cItze8Yrv6oykSEDYG-24" style="edgeStyle=orthogonalEdgeStyle;rounded=0;orthogonalLoop=1;jettySize=auto;html=1;exitX=0.5;exitY=1;exitDx=0;exitDy=0;entryX=0.5;entryY=0;entryDx=0;entryDy=0;" parent="1" source="S9cItze8Yrv6oykSEDYG-19" target="S9cItze8Yrv6oykSEDYG-17" edge="1">
          <mxGeometry relative="1" as="geometry" />
        </mxCell>
        <mxCell id="S9cItze8Yrv6oykSEDYG-19" value="is Valid in Database ?" style="rhombus;whiteSpace=wrap;html=1;" parent="1" vertex="1">
          <mxGeometry x="100" y="510" width="180" height="60" as="geometry" />
        </mxCell>
        <mxCell id="S9cItze8Yrv6oykSEDYG-22" value="YES" style="text;html=1;align=center;verticalAlign=middle;whiteSpace=wrap;rounded=0;" parent="1" vertex="1">
          <mxGeometry x="110" y="560" width="60" height="30" as="geometry" />
        </mxCell>
        <mxCell id="S9cItze8Yrv6oykSEDYG-23" value="NO" style="text;html=1;align=center;verticalAlign=middle;whiteSpace=wrap;rounded=0;" parent="1" vertex="1">
          <mxGeometry x="54.69" y="510" width="90" height="30" as="geometry" />
        </mxCell>
        <mxCell id="S9cItze8Yrv6oykSEDYG-30" style="edgeStyle=orthogonalEdgeStyle;rounded=0;orthogonalLoop=1;jettySize=auto;html=1;exitX=0.5;exitY=1;exitDx=0;exitDy=0;entryX=0.5;entryY=0;entryDx=0;entryDy=0;" parent="1" source="S9cItze8Yrv6oykSEDYG-25" target="S9cItze8Yrv6oykSEDYG-29" edge="1">
          <mxGeometry relative="1" as="geometry" />
        </mxCell>
        <mxCell id="S9cItze8Yrv6oykSEDYG-25" value="- Store &lt;b&gt;Session&amp;nbsp;&lt;/b&gt;in &lt;b&gt;Session Redis&lt;/b&gt;&lt;div&gt;- &lt;b&gt;Session Redis&lt;/b&gt; return &lt;b&gt;Session ID&lt;/b&gt;&lt;/div&gt;" style="rounded=0;whiteSpace=wrap;html=1;align=left;" parent="1" vertex="1">
          <mxGeometry x="84.69" y="720" width="210.62" height="60" as="geometry" />
        </mxCell>
        <mxCell id="S9cItze8Yrv6oykSEDYG-28" value="&lt;b&gt;&lt;font color=&quot;#3333ff&quot; style=&quot;font-size: 20px;&quot;&gt;SERVER&lt;/font&gt;&lt;/b&gt;" style="rounded=1;whiteSpace=wrap;html=1;fillColor=none;strokeColor=#9673a6;gradientColor=none;glass=0;shadow=0;fillStyle=dashed;align=left;dashed=1;" parent="1" vertex="1">
          <mxGeometry x="-60" y="220" width="770" height="470" as="geometry" />
        </mxCell>
        <mxCell id="S9cItze8Yrv6oykSEDYG-35" style="edgeStyle=orthogonalEdgeStyle;rounded=0;orthogonalLoop=1;jettySize=auto;html=1;exitX=0.5;exitY=1;exitDx=0;exitDy=0;entryX=0.5;entryY=0;entryDx=0;entryDy=0;" parent="1" source="S9cItze8Yrv6oykSEDYG-29" target="S9cItze8Yrv6oykSEDYG-34" edge="1">
          <mxGeometry relative="1" as="geometry" />
        </mxCell>
        <mxCell id="S9cItze8Yrv6oykSEDYG-29" value="- Server get &lt;b&gt;Session ID&lt;/b&gt; (&lt;b&gt;SID&lt;/b&gt;) via Cookie&lt;div&gt;- Sent &lt;b&gt;valid Authentication&amp;nbsp;&lt;/b&gt;to client&lt;br&gt;&lt;div&gt;- Redirect to &lt;b&gt;/root - GET&lt;/b&gt; method&amp;nbsp; (included &lt;b&gt;SID&lt;/b&gt;) to Client&lt;/div&gt;&lt;/div&gt;" style="rounded=1;whiteSpace=wrap;html=1;align=left;" parent="1" vertex="1">
          <mxGeometry x="82.34" y="830" width="215.31" height="90" as="geometry" />
        </mxCell>
        <mxCell id="S9cItze8Yrv6oykSEDYG-31" value="&lt;span style=&quot;font-size: 20px;&quot;&gt;&lt;b&gt;&lt;font color=&quot;#ff8000&quot;&gt;REDIS&lt;/font&gt;&lt;/b&gt;&lt;/span&gt;" style="rounded=1;whiteSpace=wrap;html=1;fillColor=none;strokeColor=#9673a6;gradientColor=none;glass=0;shadow=0;fillStyle=dashed;align=left;dashed=1;" parent="1" vertex="1">
          <mxGeometry x="-20" y="700" width="340" height="100" as="geometry" />
        </mxCell>
        <mxCell id="S9cItze8Yrv6oykSEDYG-32" value="&lt;span style=&quot;font-size: 20px;&quot;&gt;&lt;b&gt;&lt;font color=&quot;#ff66ff&quot;&gt;CLIENT&lt;/font&gt;&lt;/b&gt;&lt;/span&gt;" style="rounded=1;whiteSpace=wrap;html=1;fillColor=none;strokeColor=#9673a6;gradientColor=none;glass=0;shadow=0;fillStyle=dashed;align=left;dashed=1;" parent="1" vertex="1">
          <mxGeometry x="-20" y="45" width="340" height="165" as="geometry" />
        </mxCell>
        <mxCell id="S9cItze8Yrv6oykSEDYG-33" value="&lt;b&gt;&lt;font color=&quot;#3333ff&quot; style=&quot;font-size: 20px;&quot;&gt;SERVER&lt;/font&gt;&lt;/b&gt;" style="rounded=1;whiteSpace=wrap;html=1;fillColor=none;strokeColor=#9673a6;gradientColor=none;glass=0;shadow=0;fillStyle=dashed;align=left;dashed=1;" parent="1" vertex="1">
          <mxGeometry x="-20" y="810" width="340" height="130" as="geometry" />
        </mxCell>
        <mxCell id="S9cItze8Yrv6oykSEDYG-41" style="edgeStyle=orthogonalEdgeStyle;rounded=0;orthogonalLoop=1;jettySize=auto;html=1;exitX=0.5;exitY=1;exitDx=0;exitDy=0;entryX=0.5;entryY=0;entryDx=0;entryDy=0;" parent="1" source="S9cItze8Yrv6oykSEDYG-34" target="S9cItze8Yrv6oykSEDYG-39" edge="1">
          <mxGeometry relative="1" as="geometry" />
        </mxCell>
        <mxCell id="S9cItze8Yrv6oykSEDYG-34" value="HTML Home page&amp;nbsp;&lt;div&gt;(with valid username and SID in Cookie)&lt;/div&gt;" style="rounded=1;whiteSpace=wrap;html=1;align=center;" parent="1" vertex="1">
          <mxGeometry x="82.35" y="970" width="215.31" height="50" as="geometry" />
        </mxCell>
        <mxCell id="S9cItze8Yrv6oykSEDYG-36" value="&lt;span style=&quot;font-size: 20px;&quot;&gt;&lt;b&gt;&lt;font color=&quot;#ff66ff&quot;&gt;CLIENT&lt;/font&gt;&lt;/b&gt;&lt;/span&gt;" style="rounded=1;whiteSpace=wrap;html=1;fillColor=none;strokeColor=#9673a6;gradientColor=none;glass=0;shadow=0;fillStyle=dashed;align=left;dashed=1;" parent="1" vertex="1">
          <mxGeometry x="-20" y="950" width="340" height="290" as="geometry" />
        </mxCell>
        <mxCell id="S9cItze8Yrv6oykSEDYG-37" value="&lt;b&gt;Feature in Session (Only stored in SERVER side)&lt;/b&gt;&lt;div&gt;+ Session ID (Variable)&lt;br&gt;&lt;div&gt;+ Personal information (Object)&lt;/div&gt;&lt;div&gt;&lt;span style=&quot;white-space: pre;&quot;&gt;&#x9;&lt;/span&gt;- Username&lt;br&gt;&lt;/div&gt;&lt;div&gt;&lt;span style=&quot;white-space: pre;&quot;&gt;&#x9;&lt;/span&gt;- Password&lt;br&gt;&lt;/div&gt;&lt;div&gt;&lt;span style=&quot;white-space: pre;&quot;&gt;&#x9;&lt;/span&gt;- Address&lt;br&gt;&lt;/div&gt;&lt;div&gt;&lt;span style=&quot;white-space: pre;&quot;&gt;&#x9;&lt;/span&gt;- Telephone number&lt;br&gt;&lt;/div&gt;&lt;div&gt;&lt;span style=&quot;white-space: pre;&quot;&gt;&#x9;&lt;/span&gt;- Sex&lt;br&gt;&lt;/div&gt;&lt;div&gt;&lt;span style=&quot;white-space: pre;&quot;&gt;&#x9;&lt;/span&gt;- Member type&lt;br&gt;&lt;/div&gt;&lt;div&gt;&lt;span style=&quot;white-space: pre;&quot;&gt;&#x9;&lt;/span&gt;- ...&lt;br&gt;&lt;/div&gt;&lt;div&gt;+ Purchase history (Object)&lt;/div&gt;&lt;div&gt;&lt;span style=&quot;white-space: pre;&quot;&gt;&#x9;&lt;/span&gt;- Candle product&lt;br&gt;&lt;/div&gt;&lt;/div&gt;&lt;div&gt;&lt;span style=&quot;white-space: pre;&quot;&gt;&#x9;&lt;/span&gt;- Oil product&lt;br&gt;&lt;/div&gt;&lt;div&gt;&lt;span style=&quot;white-space: pre;&quot;&gt;&#x9;&lt;/span&gt;- Best choice&lt;br&gt;&lt;/div&gt;&lt;div&gt;&lt;span style=&quot;white-space: pre;&quot;&gt;&#x9;&lt;/span&gt;- Total payment&lt;br&gt;&lt;/div&gt;&lt;div&gt;&lt;span style=&quot;white-space: pre;&quot;&gt;&#x9;&lt;/span&gt;- Latest date&lt;br&gt;&lt;/div&gt;&lt;div&gt;+ Payment information (Object)&lt;/div&gt;&lt;div&gt;&lt;span style=&quot;white-space: pre;&quot;&gt;&#x9;&lt;/span&gt;- Smart banking:&lt;br&gt;&lt;/div&gt;&lt;div&gt;&lt;span style=&quot;white-space: pre;&quot;&gt;&#x9;&lt;/span&gt;&lt;span style=&quot;white-space: pre;&quot;&gt;&#x9;&lt;/span&gt;+ Bank name&lt;/div&gt;&lt;div&gt;&lt;span style=&quot;white-space: pre;&quot;&gt;&#x9;&lt;/span&gt;&lt;span style=&quot;white-space: pre;&quot;&gt;&#x9;&lt;/span&gt;+ Bank number&lt;br&gt;&lt;/div&gt;&lt;div&gt;&lt;span style=&quot;white-space: pre;&quot;&gt;&#x9;&lt;/span&gt;- MOMO:&lt;br&gt;&lt;/div&gt;&lt;div&gt;&lt;span style=&quot;white-space: pre;&quot;&gt;&#x9;&lt;/span&gt;&lt;span style=&quot;white-space: pre;&quot;&gt;&#x9;&lt;/span&gt;+ Telephone&lt;br&gt;&lt;/div&gt;&lt;div&gt;&lt;span style=&quot;white-space: pre;&quot;&gt;&#x9;&lt;/span&gt;&lt;br&gt;&lt;/div&gt;" style="rounded=0;whiteSpace=wrap;html=1;align=left;" parent="1" vertex="1">
          <mxGeometry x="-450" y="577.5" width="340" height="345" as="geometry" />
        </mxCell>
        <mxCell id="S9cItze8Yrv6oykSEDYG-38" value="" style="endArrow=none;dashed=1;html=1;dashPattern=1 3;strokeWidth=2;rounded=0;entryX=0;entryY=0.5;entryDx=0;entryDy=0;exitX=1;exitY=0.5;exitDx=0;exitDy=0;" parent="1" source="S9cItze8Yrv6oykSEDYG-37" target="S9cItze8Yrv6oykSEDYG-31" edge="1">
          <mxGeometry width="50" height="50" relative="1" as="geometry">
            <mxPoint x="-150" y="770" as="sourcePoint" />
            <mxPoint x="-50" y="740" as="targetPoint" />
          </mxGeometry>
        </mxCell>
        <mxCell id="S9cItze8Yrv6oykSEDYG-42" style="edgeStyle=orthogonalEdgeStyle;rounded=0;orthogonalLoop=1;jettySize=auto;html=1;exitX=0.5;exitY=1;exitDx=0;exitDy=0;entryX=0.5;entryY=0;entryDx=0;entryDy=0;" parent="1" source="S9cItze8Yrv6oykSEDYG-39" target="S9cItze8Yrv6oykSEDYG-40" edge="1">
          <mxGeometry relative="1" as="geometry" />
        </mxCell>
        <mxCell id="S9cItze8Yrv6oykSEDYG-39" value="START NEXT REQUEST&lt;div&gt;(&lt;b&gt;/payment - POST&amp;nbsp;&lt;/b&gt;method)&lt;/div&gt;" style="ellipse;whiteSpace=wrap;html=1;" parent="1" vertex="1">
          <mxGeometry x="77.49999999999999" y="1060" width="225" height="70" as="geometry" />
        </mxCell>
        <mxCell id="S9cItze8Yrv6oykSEDYG-47" style="edgeStyle=orthogonalEdgeStyle;rounded=0;orthogonalLoop=1;jettySize=auto;html=1;exitX=0.5;exitY=1;exitDx=0;exitDy=0;entryX=0.5;entryY=0;entryDx=0;entryDy=0;" parent="1" source="S9cItze8Yrv6oykSEDYG-40" target="S9cItze8Yrv6oykSEDYG-46" edge="1">
          <mxGeometry relative="1" as="geometry" />
        </mxCell>
        <mxCell id="S9cItze8Yrv6oykSEDYG-40" value="HTML Payment page&lt;div&gt;- Request Server return payment information&lt;/div&gt;" style="rounded=1;whiteSpace=wrap;html=1;align=center;" parent="1" vertex="1">
          <mxGeometry x="82.33999999999999" y="1170" width="215.31" height="50" as="geometry" />
        </mxCell>
        <mxCell id="S9cItze8Yrv6oykSEDYG-44" value="Example about next request with known Cookie" style="text;html=1;align=center;verticalAlign=middle;whiteSpace=wrap;rounded=0;" parent="1" vertex="1">
          <mxGeometry x="-350" y="1010" width="280" height="30" as="geometry" />
        </mxCell>
        <mxCell id="S9cItze8Yrv6oykSEDYG-45" value="" style="endArrow=none;dashed=1;html=1;dashPattern=1 3;strokeWidth=2;rounded=0;entryX=0;entryY=0;entryDx=0;entryDy=0;exitX=1;exitY=0.5;exitDx=0;exitDy=0;" parent="1" source="S9cItze8Yrv6oykSEDYG-44" target="S9cItze8Yrv6oykSEDYG-39" edge="1">
          <mxGeometry width="50" height="50" relative="1" as="geometry">
            <mxPoint x="-170" y="1120" as="sourcePoint" />
            <mxPoint x="-120" y="1070" as="targetPoint" />
          </mxGeometry>
        </mxCell>
        <mxCell id="S9cItze8Yrv6oykSEDYG-63" style="edgeStyle=orthogonalEdgeStyle;rounded=0;orthogonalLoop=1;jettySize=auto;html=1;exitX=0.5;exitY=1;exitDx=0;exitDy=0;" parent="1" source="S9cItze8Yrv6oykSEDYG-46" target="S9cItze8Yrv6oykSEDYG-62" edge="1">
          <mxGeometry relative="1" as="geometry" />
        </mxCell>
        <mxCell id="S9cItze8Yrv6oykSEDYG-46" value="- Get &lt;b&gt;SID &lt;/b&gt;from &lt;b&gt;Cookie &lt;/b&gt;in &lt;b&gt;Client&lt;/b&gt;&lt;div&gt;- Send &lt;b&gt;SID &lt;/b&gt;to Redis and get &lt;b&gt;session information&lt;/b&gt;&lt;/div&gt;" style="rounded=1;whiteSpace=wrap;html=1;align=left;" parent="1" vertex="1">
          <mxGeometry x="82.19" y="1280" width="215.31" height="60" as="geometry" />
        </mxCell>
        <mxCell id="S9cItze8Yrv6oykSEDYG-53" style="edgeStyle=orthogonalEdgeStyle;rounded=0;orthogonalLoop=1;jettySize=auto;html=1;exitX=0.5;exitY=1;exitDx=0;exitDy=0;entryX=0.5;entryY=0;entryDx=0;entryDy=0;" parent="1" source="S9cItze8Yrv6oykSEDYG-48" target="S9cItze8Yrv6oykSEDYG-52" edge="1">
          <mxGeometry relative="1" as="geometry" />
        </mxCell>
        <mxCell id="S9cItze8Yrv6oykSEDYG-48" value="- Return &lt;b&gt;Authentication &lt;/b&gt;and&amp;nbsp;&lt;b&gt;Session data&amp;nbsp;&lt;/b&gt;to &lt;b&gt;Server&lt;/b&gt;" style="rounded=1;whiteSpace=wrap;html=1;align=left;" parent="1" vertex="1">
          <mxGeometry x="81.84" y="1640" width="215.31" height="60" as="geometry" />
        </mxCell>
        <mxCell id="S9cItze8Yrv6oykSEDYG-50" value="&lt;span style=&quot;font-size: 20px;&quot;&gt;&lt;b&gt;&lt;font color=&quot;#ff8000&quot;&gt;REDIS&lt;/font&gt;&lt;/b&gt;&lt;/span&gt;" style="rounded=1;whiteSpace=wrap;html=1;fillColor=none;strokeColor=#9673a6;gradientColor=none;glass=0;shadow=0;fillStyle=dashed;align=left;dashed=1;" parent="1" vertex="1">
          <mxGeometry x="-34.83" y="1390" width="404.83" height="200" as="geometry" />
        </mxCell>
        <mxCell id="S9cItze8Yrv6oykSEDYG-51" value="&lt;b&gt;&lt;font color=&quot;#3333ff&quot; style=&quot;font-size: 20px;&quot;&gt;SERVER&lt;/font&gt;&lt;/b&gt;" style="rounded=1;whiteSpace=wrap;html=1;fillColor=none;strokeColor=#9673a6;gradientColor=none;glass=0;shadow=0;fillStyle=dashed;align=left;dashed=1;" parent="1" vertex="1">
          <mxGeometry x="-137.5" y="1250" width="800" height="590" as="geometry" />
        </mxCell>
        <mxCell id="S9cItze8Yrv6oykSEDYG-56" style="edgeStyle=orthogonalEdgeStyle;rounded=0;orthogonalLoop=1;jettySize=auto;html=1;exitX=0.5;exitY=1;exitDx=0;exitDy=0;entryX=0.5;entryY=0;entryDx=0;entryDy=0;" parent="1" source="S9cItze8Yrv6oykSEDYG-52" target="S9cItze8Yrv6oykSEDYG-55" edge="1">
          <mxGeometry relative="1" as="geometry" />
        </mxCell>
        <mxCell id="S9cItze8Yrv6oykSEDYG-52" value="- Get &lt;b&gt;payment information&lt;/b&gt;&amp;nbsp;with &lt;b&gt;Authenticated person&lt;/b&gt; from &lt;b&gt;Redis&lt;/b&gt;&lt;div&gt;- Return &lt;b&gt;payment information&lt;/b&gt; to &lt;b&gt;Client &lt;/b&gt;(with&amp;nbsp;&lt;span style=&quot;background-color: initial;&quot;&gt;&lt;b&gt;Authenticated person&lt;/b&gt;)&lt;/span&gt;&lt;/div&gt;" style="rounded=1;whiteSpace=wrap;html=1;align=left;" parent="1" vertex="1">
          <mxGeometry x="82.35" y="1720" width="215.31" height="110" as="geometry" />
        </mxCell>
        <mxCell id="S9cItze8Yrv6oykSEDYG-59" style="edgeStyle=orthogonalEdgeStyle;rounded=0;orthogonalLoop=1;jettySize=auto;html=1;exitX=0.5;exitY=1;exitDx=0;exitDy=0;entryX=0.5;entryY=0;entryDx=0;entryDy=0;" parent="1" source="S9cItze8Yrv6oykSEDYG-55" target="S9cItze8Yrv6oykSEDYG-58" edge="1">
          <mxGeometry relative="1" as="geometry" />
        </mxCell>
        <mxCell id="S9cItze8Yrv6oykSEDYG-55" value="HTML Payment page&lt;div&gt;- Show payment information to Browser&lt;/div&gt;" style="rounded=1;whiteSpace=wrap;html=1;align=center;" parent="1" vertex="1">
          <mxGeometry x="82.34999999999997" y="1865" width="215.31" height="50" as="geometry" />
        </mxCell>
        <mxCell id="S9cItze8Yrv6oykSEDYG-57" value="&lt;span style=&quot;font-size: 20px;&quot;&gt;&lt;b&gt;&lt;font color=&quot;#ff66ff&quot;&gt;CLIENT&lt;/font&gt;&lt;/b&gt;&lt;/span&gt;" style="rounded=1;whiteSpace=wrap;html=1;fillColor=none;strokeColor=#9673a6;gradientColor=none;glass=0;shadow=0;fillStyle=dashed;align=left;dashed=1;" parent="1" vertex="1">
          <mxGeometry x="-20" y="1840" width="340" height="200" as="geometry" />
        </mxCell>
        <mxCell id="S9cItze8Yrv6oykSEDYG-58" value="STOP&lt;div&gt;Waiting for next request&lt;/div&gt;" style="ellipse;whiteSpace=wrap;html=1;" parent="1" vertex="1">
          <mxGeometry x="77.51" y="1950" width="225" height="70" as="geometry" />
        </mxCell>
        <mxCell id="S9cItze8Yrv6oykSEDYG-60" value="Switch to Register Logic" style="ellipse;whiteSpace=wrap;html=1;" parent="1" vertex="1">
          <mxGeometry x="437.5" y="480" width="225" height="50" as="geometry" />
        </mxCell>
        <mxCell id="S9cItze8Yrv6oykSEDYG-68" style="edgeStyle=orthogonalEdgeStyle;rounded=0;orthogonalLoop=1;jettySize=auto;html=1;exitX=1;exitY=0.5;exitDx=0;exitDy=0;" parent="1" source="S9cItze8Yrv6oykSEDYG-62" target="S9cItze8Yrv6oykSEDYG-67" edge="1">
          <mxGeometry relative="1" as="geometry" />
        </mxCell>
        <mxCell id="NwC-d5hyy3LNC2AvozJl-4" style="edgeStyle=orthogonalEdgeStyle;rounded=0;orthogonalLoop=1;jettySize=auto;html=1;exitX=0.5;exitY=1;exitDx=0;exitDy=0;entryX=0.5;entryY=0;entryDx=0;entryDy=0;" edge="1" parent="1" source="S9cItze8Yrv6oykSEDYG-62" target="S9cItze8Yrv6oykSEDYG-48">
          <mxGeometry relative="1" as="geometry" />
        </mxCell>
        <mxCell id="S9cItze8Yrv6oykSEDYG-62" value="is SID valid (expiration, correct SID) in Redis Cache?" style="rhombus;whiteSpace=wrap;html=1;" parent="1" vertex="1">
          <mxGeometry x="39.75" y="1412.5" width="299.49" height="155" as="geometry" />
        </mxCell>
        <mxCell id="S9cItze8Yrv6oykSEDYG-69" style="edgeStyle=orthogonalEdgeStyle;rounded=0;orthogonalLoop=1;jettySize=auto;html=1;exitX=1;exitY=0.5;exitDx=0;exitDy=0;entryX=1;entryY=0.5;entryDx=0;entryDy=0;" parent="1" source="S9cItze8Yrv6oykSEDYG-67" target="S9cItze8Yrv6oykSEDYG-32" edge="1">
          <mxGeometry relative="1" as="geometry">
            <Array as="points">
              <mxPoint x="720" y="1490" />
              <mxPoint x="720" y="128" />
            </Array>
          </mxGeometry>
        </mxCell>
        <mxCell id="S9cItze8Yrv6oykSEDYG-67" value="Request Client login again" style="rounded=1;whiteSpace=wrap;html=1;" parent="1" vertex="1">
          <mxGeometry x="390" y="1460" width="212.5" height="60" as="geometry" />
        </mxCell>
        <mxCell id="RC0Q_TB2oeetOhMSHWf2-2" value="NO" style="text;html=1;align=center;verticalAlign=middle;whiteSpace=wrap;rounded=0;" parent="1" vertex="1">
          <mxGeometry x="272.5" y="1440" width="60" height="30" as="geometry" />
        </mxCell>
        <mxCell id="RC0Q_TB2oeetOhMSHWf2-3" value="YES" style="text;html=1;align=center;verticalAlign=middle;whiteSpace=wrap;rounded=0;" parent="1" vertex="1">
          <mxGeometry x="84.69" y="1537.5" width="60" height="30" as="geometry" />
        </mxCell>
        <mxCell id="CecaAmjSDqojqknLz8Um-3" value="CLIENT 1" style="rounded=1;whiteSpace=wrap;html=1;" parent="1" vertex="1">
          <mxGeometry y="2110" width="260" height="80" as="geometry" />
        </mxCell>
        <mxCell id="CecaAmjSDqojqknLz8Um-10" style="edgeStyle=orthogonalEdgeStyle;rounded=0;orthogonalLoop=1;jettySize=auto;html=1;exitX=0;exitY=0.75;exitDx=0;exitDy=0;entryX=1;entryY=0.75;entryDx=0;entryDy=0;" parent="1" source="CecaAmjSDqojqknLz8Um-4" target="CecaAmjSDqojqknLz8Um-3" edge="1">
          <mxGeometry relative="1" as="geometry">
            <Array as="points">
              <mxPoint x="470" y="2170" />
            </Array>
          </mxGeometry>
        </mxCell>
        <mxCell id="CecaAmjSDqojqknLz8Um-4" value="SERVER" style="rounded=1;whiteSpace=wrap;html=1;" parent="1" vertex="1">
          <mxGeometry x="470" y="2090" width="260" height="250" as="geometry" />
        </mxCell>
        <mxCell id="CecaAmjSDqojqknLz8Um-15" style="edgeStyle=orthogonalEdgeStyle;rounded=0;orthogonalLoop=1;jettySize=auto;html=1;exitX=1;exitY=0.25;exitDx=0;exitDy=0;" parent="1" source="CecaAmjSDqojqknLz8Um-6" edge="1">
          <mxGeometry relative="1" as="geometry">
            <mxPoint x="470" y="2260" as="targetPoint" />
          </mxGeometry>
        </mxCell>
        <mxCell id="CecaAmjSDqojqknLz8Um-6" value="CLIENT 2" style="rounded=1;whiteSpace=wrap;html=1;" parent="1" vertex="1">
          <mxGeometry y="2240" width="260" height="80" as="geometry" />
        </mxCell>
        <mxCell id="CecaAmjSDqojqknLz8Um-9" value="Request 1 - SID1" style="text;html=1;align=center;verticalAlign=middle;whiteSpace=wrap;rounded=0;" parent="1" vertex="1">
          <mxGeometry x="295" y="2100" width="140" height="30" as="geometry" />
        </mxCell>
        <mxCell id="CecaAmjSDqojqknLz8Um-11" value="Response 1" style="text;html=1;align=center;verticalAlign=middle;whiteSpace=wrap;rounded=0;" parent="1" vertex="1">
          <mxGeometry x="299.85" y="2170" width="140" height="30" as="geometry" />
        </mxCell>
        <mxCell id="CecaAmjSDqojqknLz8Um-14" style="edgeStyle=orthogonalEdgeStyle;rounded=0;orthogonalLoop=1;jettySize=auto;html=1;exitX=1;exitY=0.25;exitDx=0;exitDy=0;entryX=0.005;entryY=0.163;entryDx=0;entryDy=0;entryPerimeter=0;" parent="1" source="CecaAmjSDqojqknLz8Um-3" target="CecaAmjSDqojqknLz8Um-4" edge="1">
          <mxGeometry relative="1" as="geometry" />
        </mxCell>
        <mxCell id="CecaAmjSDqojqknLz8Um-17" value="" style="endArrow=classic;html=1;rounded=0;exitX=-0.002;exitY=0.826;exitDx=0;exitDy=0;exitPerimeter=0;" parent="1" source="CecaAmjSDqojqknLz8Um-4" edge="1">
          <mxGeometry width="50" height="50" relative="1" as="geometry">
            <mxPoint x="250" y="2240" as="sourcePoint" />
            <mxPoint x="260" y="2296" as="targetPoint" />
          </mxGeometry>
        </mxCell>
        <mxCell id="CecaAmjSDqojqknLz8Um-18" value="Request 2 - SID2" style="text;html=1;align=center;verticalAlign=middle;whiteSpace=wrap;rounded=0;" parent="1" vertex="1">
          <mxGeometry x="297.66" y="2230" width="140" height="30" as="geometry" />
        </mxCell>
        <mxCell id="CecaAmjSDqojqknLz8Um-19" value="Response 2" style="text;html=1;align=center;verticalAlign=middle;whiteSpace=wrap;rounded=0;" parent="1" vertex="1">
          <mxGeometry x="302.51" y="2300" width="140" height="30" as="geometry" />
        </mxCell>
        <mxCell id="CecaAmjSDqojqknLz8Um-32" style="edgeStyle=orthogonalEdgeStyle;rounded=0;orthogonalLoop=1;jettySize=auto;html=1;exitX=1;exitY=0.25;exitDx=0;exitDy=0;" parent="1" source="CecaAmjSDqojqknLz8Um-20" edge="1">
          <mxGeometry relative="1" as="geometry">
            <mxPoint x="470" y="2460" as="targetPoint" />
          </mxGeometry>
        </mxCell>
        <mxCell id="CecaAmjSDqojqknLz8Um-20" value="Chorme CLIENT 1" style="rounded=1;whiteSpace=wrap;html=1;" parent="1" vertex="1">
          <mxGeometry x="2.66" y="2440" width="260" height="80" as="geometry" />
        </mxCell>
        <mxCell id="CecaAmjSDqojqknLz8Um-21" style="edgeStyle=orthogonalEdgeStyle;rounded=0;orthogonalLoop=1;jettySize=auto;html=1;exitX=0;exitY=0.75;exitDx=0;exitDy=0;entryX=1;entryY=0.75;entryDx=0;entryDy=0;" parent="1" source="CecaAmjSDqojqknLz8Um-22" target="CecaAmjSDqojqknLz8Um-20" edge="1">
          <mxGeometry relative="1" as="geometry">
            <Array as="points">
              <mxPoint x="472.66" y="2500" />
            </Array>
          </mxGeometry>
        </mxCell>
        <mxCell id="CecaAmjSDqojqknLz8Um-22" value="SERVER" style="rounded=1;whiteSpace=wrap;html=1;" parent="1" vertex="1">
          <mxGeometry x="472.66" y="2420" width="260" height="370" as="geometry" />
        </mxCell>
        <mxCell id="CecaAmjSDqojqknLz8Um-23" style="edgeStyle=orthogonalEdgeStyle;rounded=0;orthogonalLoop=1;jettySize=auto;html=1;exitX=1;exitY=0.25;exitDx=0;exitDy=0;" parent="1" source="CecaAmjSDqojqknLz8Um-24" edge="1">
          <mxGeometry relative="1" as="geometry">
            <mxPoint x="472.66" y="2590" as="targetPoint" />
          </mxGeometry>
        </mxCell>
        <mxCell id="CecaAmjSDqojqknLz8Um-24" value="Edge CLIENT 1" style="rounded=1;whiteSpace=wrap;html=1;" parent="1" vertex="1">
          <mxGeometry x="2.66" y="2570" width="260" height="80" as="geometry" />
        </mxCell>
        <mxCell id="CecaAmjSDqojqknLz8Um-25" value="Request 1 - SID1" style="text;html=1;align=center;verticalAlign=middle;whiteSpace=wrap;rounded=0;" parent="1" vertex="1">
          <mxGeometry x="297.66" y="2430" width="140" height="30" as="geometry" />
        </mxCell>
        <mxCell id="CecaAmjSDqojqknLz8Um-26" value="Response 1" style="text;html=1;align=center;verticalAlign=middle;whiteSpace=wrap;rounded=0;" parent="1" vertex="1">
          <mxGeometry x="302.51000000000005" y="2500" width="140" height="30" as="geometry" />
        </mxCell>
        <mxCell id="CecaAmjSDqojqknLz8Um-28" value="" style="endArrow=classic;html=1;rounded=0;" parent="1" edge="1">
          <mxGeometry width="50" height="50" relative="1" as="geometry">
            <mxPoint x="472" y="2626" as="sourcePoint" />
            <mxPoint x="262.66" y="2626" as="targetPoint" />
          </mxGeometry>
        </mxCell>
        <mxCell id="CecaAmjSDqojqknLz8Um-29" value="Request 1 - SID2" style="text;html=1;align=center;verticalAlign=middle;whiteSpace=wrap;rounded=0;" parent="1" vertex="1">
          <mxGeometry x="300.32000000000005" y="2560" width="140" height="30" as="geometry" />
        </mxCell>
        <mxCell id="CecaAmjSDqojqknLz8Um-30" value="Expected : Response 1&lt;div&gt;Actual : Response 2&lt;/div&gt;" style="text;html=1;align=center;verticalAlign=middle;whiteSpace=wrap;rounded=0;" parent="1" vertex="1">
          <mxGeometry x="305.17" y="2630" width="140" height="30" as="geometry" />
        </mxCell>
        <mxCell id="CecaAmjSDqojqknLz8Um-33" style="edgeStyle=orthogonalEdgeStyle;rounded=0;orthogonalLoop=1;jettySize=auto;html=1;exitX=1;exitY=0.25;exitDx=0;exitDy=0;" parent="1" source="CecaAmjSDqojqknLz8Um-31" edge="1">
          <mxGeometry relative="1" as="geometry">
            <mxPoint x="470" y="2720" as="targetPoint" />
          </mxGeometry>
        </mxCell>
        <mxCell id="CecaAmjSDqojqknLz8Um-31" value="Mobile CLIENT 1" style="rounded=1;whiteSpace=wrap;html=1;" parent="1" vertex="1">
          <mxGeometry x="2.66" y="2700" width="260" height="80" as="geometry" />
        </mxCell>
        <mxCell id="CecaAmjSDqojqknLz8Um-34" value="" style="endArrow=classic;html=1;rounded=0;entryX=1;entryY=0.75;entryDx=0;entryDy=0;" parent="1" target="CecaAmjSDqojqknLz8Um-31" edge="1">
          <mxGeometry width="50" height="50" relative="1" as="geometry">
            <mxPoint x="470" y="2760" as="sourcePoint" />
            <mxPoint x="400" y="2750" as="targetPoint" />
          </mxGeometry>
        </mxCell>
        <mxCell id="CecaAmjSDqojqknLz8Um-35" value="&lt;b&gt;&lt;font style=&quot;font-size: 18px;&quot;&gt;Multiple browser with a Client&lt;/font&gt;&lt;/b&gt;" style="text;html=1;align=center;verticalAlign=middle;whiteSpace=wrap;rounded=0;" parent="1" vertex="1">
          <mxGeometry x="-110" y="2390" width="320" height="30" as="geometry" />
        </mxCell>
        <mxCell id="CecaAmjSDqojqknLz8Um-36" value="&lt;b&gt;&lt;font style=&quot;font-size: 18px;&quot;&gt;Multiple client&lt;/font&gt;&lt;/b&gt;" style="text;html=1;align=center;verticalAlign=middle;whiteSpace=wrap;rounded=0;" parent="1" vertex="1">
          <mxGeometry x="-100.51" y="2060" width="170" height="30" as="geometry" />
        </mxCell>
        <mxCell id="CecaAmjSDqojqknLz8Um-37" value="Request 1 - SID3" style="text;html=1;align=center;verticalAlign=middle;whiteSpace=wrap;rounded=0;" parent="1" vertex="1">
          <mxGeometry x="302.50000000000006" y="2690" width="140" height="30" as="geometry" />
        </mxCell>
        <mxCell id="CecaAmjSDqojqknLz8Um-38" value="Response 1" style="text;html=1;align=center;verticalAlign=middle;whiteSpace=wrap;rounded=0;" parent="1" vertex="1">
          <mxGeometry x="305.17" y="2760" width="140" height="30" as="geometry" />
        </mxCell>
        <mxCell id="NwC-d5hyy3LNC2AvozJl-3" value="" style="endArrow=classic;html=1;rounded=0;exitX=0;exitY=0.5;exitDx=0;exitDy=0;" edge="1" parent="1" source="S9cItze8Yrv6oykSEDYG-19">
          <mxGeometry width="50" height="50" relative="1" as="geometry">
            <mxPoint x="10" y="570" as="sourcePoint" />
            <mxPoint x="190" y="220" as="targetPoint" />
            <Array as="points">
              <mxPoint x="30" y="540" />
              <mxPoint x="30" y="220" />
            </Array>
          </mxGeometry>
        </mxCell>
      </root>
    </mxGraphModel>
  </diagram>
</mxfile>
